PathFileType	4	(X/Y/Z)	s11c0402.trc
DataRate	CameraRate	NumFrames	NumMarkers	Units	OrigDataRate	OrigDataStartFrame	OrigNumFrames
200	200	4	48	mm	200	750	2000
Frame#	Time	racr			lacr			c7			jug			rlel			rdr			llel			ldr			s2			lic			ric			lasi			rasi			rpsi			lpsi			rgt			lgt			rth1			rth2			rth3			rth4			rlfc			rmfc			rsh1			rsh2			rsh3			rsh4			rlmal			rcal			rtoe			rmt5			lth1			lth2			lth4			lth3			llfc			lmfc			llmal			lcal			lmt5			lsh1			lsh2			lsh3			lsh4			ltoe			SBIKE			LBIKE			RBIKE			
		X1	Y1	Z1	X2	Y2	Z2	X3	Y3	Z3	X4	Y4	Z4	X5	Y5	Z5	X6	Y6	Z6	X7	Y7	Z7	X8	Y8	Z8	X9	Y9	Z9	X10	Y10	Z10	X11	Y11	Z11	X12	Y12	Z12	X13	Y13	Z13	X14	Y14	Z14	X15	Y15	Z15	X16	Y16	Z16	X17	Y17	Z17	X18	Y18	Z18	X19	Y19	Z19	X20	Y20	Z20	X21	Y21	Z21	X22	Y22	Z22	X23	Y23	Z23	X24	Y24	Z24	X25	Y25	Z25	X26	Y26	Z26	X27	Y27	Z27	X28	Y28	Z28	X29	Y29	Z29	X30	Y30	Z30	X31	Y31	Z31	X32	Y32	Z32	X33	Y33	Z33	X34	Y34	Z34	X35	Y35	Z35	X36	Y36	Z36	X37	Y37	Z37	X38	Y38	Z38	X39	Y39	Z39	X40	Y40	Z40	X41	Y41	Z41	X42	Y42	Z42	X43	Y43	Z43	X44	Y44	Z44	X45	Y45	Z45	X46	Y46	Z46	X47	Y47	Z47	X48	Y48	Z48	
750	3.7500	797.413361	1316.607810	-52.509338	802.560538	1323.425527	-396.522438	784.635137	1413.241947	-223.992319	742.526843	1229.932932	-225.393926	601.209960	1122.777295	66.535289	761.396821	961.627371	-64.099771	572.801976	1175.577060	-580.702927	757.075158	950.250440	-496.102622	163.456240	1292.300944	-268.381639	383.728949	1246.252543	-462.566907	377.609949	1277.507008	-61.124532	397.431586	1174.791456	-424.261503	386.161810	1215.282913	-106.869393	222.479534	1360.978527	-224.565217	222.027043	1344.486700	-314.177603	326.675511	1158.950788	-38.689801	249.584313	1129.457347	-458.821615	441.951937	1071.823177	-39.785083	523.323408	1039.228848	-49.988485	576.843021	969.585193	-61.209214	542.318165	1067.033212	-65.937621	654.051742	897.240819	-79.202787	649.694512	876.578353	-212.027298	535.364236	794.749249	-68.261490	479.125634	729.359095	-88.251173	398.439603	697.272543	-90.044655	497.200526	710.995758	-117.567719	279.738888	627.107187	-101.629645	223.404130	665.753984	-149.307353	381.887951	425.219649	-152.723512	318.081770	461.652270	-80.856275	282.260066	993.065803	-467.699187	312.909144	914.356294	-455.806243	348.918164	917.740949	-448.938587	298.352893	825.815501	-447.020148	309.178911	684.348625	-418.823130	308.175689	675.913178	-288.318565	151.624580	282.496261	-411.639653	88.518865	272.946906	-380.438541	250.450620	144.040373	-453.896491	256.869589	569.178501	-442.837302	251.606313	484.145638	-430.468201	204.707247	409.502659	-429.209607	281.969547	476.919254	-408.278134	348.675875	124.697507	-387.684085	-215.074120	953.654360	-257.656122	-17.797312	80.771226	-460.925072	-17.768116	80.941049	-62.198833	
751	3.7550	796.769291	1316.487405	-50.019010	803.377402	1324.395761	-394.116219	784.587892	1412.968554	-221.646907	743.040209	1229.548505	-223.169774	600.452544	1122.114451	67.143234	761.746807	962.309577	-63.841806	574.775382	1176.405791	-579.622157	758.220478	950.358319	-495.096735	164.333172	1293.928068	-270.735340	385.592708	1246.055738	-461.526411	375.772144	1279.497869	-60.714154	398.313865	1175.026656	-423.153934	385.164877	1217.282904	-106.601501	222.689992	1362.371449	-226.566396	222.768715	1345.979454	-315.407096	326.490629	1162.266066	-38.867101	250.160293	1130.029845	-458.723376	442.538268	1075.118291	-39.900965	523.442572	1043.518765	-49.582703	578.522152	974.580499	-61.309079	543.537523	1071.605090	-66.687530	657.140201	903.388817	-79.696682	653.257866	882.741207	-213.376366	540.894561	799.211322	-68.673980	485.873245	732.532056	-88.508502	405.857075	698.886826	-90.054534	504.131921	714.578963	-118.037350	286.602196	626.048915	-101.506644	228.753729	663.135428	-148.993385	393.209545	427.027734	-152.577087	328.974221	461.710165	-80.965168	282.322821	994.842917	-468.101132	312.148808	915.599335	-455.806577	348.117875	918.716560	-448.576546	296.773185	827.160716	-447.037152	305.857288	685.431754	-419.736328	306.042992	676.469219	-289.347130	143.472231	285.556113	-411.781338	80.364057	277.058031	-380.401845	239.923962	145.225591	-453.886113	252.107072	570.814400	-443.656087	245.742470	485.973842	-431.257805	197.835515	411.875830	-429.640240	276.200869	478.270810	-409.235218	337.918795	124.416076	-387.658099	-215.119152	953.668291	-257.601306	-17.817154	80.794068	-460.927323	-17.811517	80.936821	-62.080900	
752	3.7600	796.241106	1316.078479	-47.852306	804.130097	1324.966590	-391.775317	784.664830	1412.659447	-219.489610	743.400438	1229.194380	-221.343707	599.899521	1121.439813	67.460153	762.019109	962.972658	-63.251207	576.743292	1176.922806	-578.527022	759.421795	950.477745	-494.138423	164.065449	1295.311721	-271.787405	387.424255	1245.909162	-460.402074	374.198821	1281.395443	-60.243103	399.133906	1175.265505	-422.151185	384.245756	1219.583469	-106.323261	222.777361	1364.059733	-228.175170	223.247270	1347.814375	-317.142837	326.335204	1165.437895	-38.981109	250.707623	1130.914253	-458.552040	442.853130	1078.585229	-39.658900	525.853846	1047.227833	-52.839648	579.851893	979.183891	-61.782936	543.682638	1075.202081	-66.635098	659.545958	909.976239	-80.485748	656.094080	888.956651	-214.765673	546.011612	803.078051	-69.139100	491.656210	734.713053	-89.210727	413.002306	699.835118	-90.108372	510.671267	717.695243	-118.610072	292.881988	624.059383	-101.329057	233.822028	659.640604	-148.573950	404.813051	428.383008	-152.588612	339.848437	460.847318	-81.064848	282.489712	996.582091	-468.107415	311.888814	917.147771	-455.847570	347.854547	920.067713	-448.402421	296.101277	828.714491	-447.289784	303.589027	686.794281	-420.942928	305.293940	677.341714	-290.768120	135.597618	289.449947	-411.898454	72.508927	281.753640	-380.362156	229.597636	147.109713	-453.815175	248.376002	572.934426	-444.763491	240.812597	488.071263	-432.176859	191.740356	414.832561	-430.196808	271.291140	480.058413	-410.366547	327.236696	124.809181	-387.689774	-215.132656	953.704916	-257.498676	-17.812537	80.839224	-460.911123	-17.755708	80.958410	-62.147093	
753	3.7650	795.810627	1315.564475	-46.016629	804.757554	1325.512553	-389.525638	784.746087	1412.033618	-217.453542	743.809466	1228.513273	-219.538725	599.275363	1120.585866	67.543394	762.324284	963.512758	-62.338206	578.612797	1177.245801	-577.513291	760.610794	950.618493	-493.157623	164.386538	1297.322594	-273.002473	389.150819	1245.882308	-459.454565	372.360801	1283.295138	-59.894847	400.114628	1175.346779	-421.447862	383.377155	1222.093300	-106.136111	222.895126	1366.079986	-229.598438	223.755128	1349.868763	-318.578261	326.150402	1168.634208	-39.008374	251.376227	1132.137870	-458.624024	443.053971	1081.878480	-39.851121	525.747032	1051.159165	-52.688600	580.090646	983.170026	-61.599861	543.860274	1079.090458	-66.987221	661.520655	915.367660	-81.617910	658.151531	894.695471	-216.222777	550.478582	805.961417	-69.695892	497.658359	736.379095	-89.389426	419.528853	700.128075	-90.247051	516.680483	719.999968	-119.140513	298.694058	621.442136	-101.058254	238.379254	655.296909	-148.220521	416.197745	428.970817	-152.526768	350.280866	459.527808	-81.062317	282.977394	998.422743	-468.086382	312.174370	918.914987	-455.947925	348.097514	921.793480	-448.386071	296.185924	830.548982	-447.842725	302.414579	688.453948	-422.464774	305.848716	678.223537	-292.394637	128.021494	293.944513	-412.177890	65.010690	287.186745	-380.277627	219.463922	149.629908	-453.728457	245.817170	575.356493	-445.961621	236.774629	490.720221	-433.241585	186.371685	418.336608	-430.969401	267.222855	482.213420	-411.632326	316.749841	125.832541	-387.696319	-215.141651	953.730650	-257.369835	-17.762926	80.782686	-460.950184	-17.763805	80.989220	-62.142218	
